<svg xmlns="http://www.w3.org/2000/svg" viewBox="0 0 512 512">
  <rect width="512" height="512" rx="96" fill="#c5050c"/>
  <g transform="translate(56, 96) scale(1.6)" fill="white">
    <path d="M155 55c11 0 20-9 20-20s-9-20-20-20-20 9-20 20 9 20 20 20zM50 120c-28 0-50 22-50 50s22 50 50 50 50-22 50-50-22-50-50-50zm0 85c-19 0-35-16-35-35s16-35 35-35 35 16 35 35-16 35-35 35zm58-100l24-24 8 8c13 13 30 21 51 21V90c-15 0-27-6-36-15l-19-19c-5-4-10-6-16-6s-11 2-14 6L78 84c-4 4-6 9-6 14 0 6 2 11 6 14L110 140v50h20v-62l-22-23zM190 120c-28 0-50 22-50 50s22 50 50 50 50-22 50-50-22-50-50-50zm0 85c-19 0-35-16-35-35s16-35 35-35 35 16 35 35-16 35-35 35z"/>
  </g>
</svg>
